<mxfile host="Electron" modified="2024-05-01T14:13:10.559Z" agent="Mozilla/5.0 (Windows NT 10.0; Win64; x64) AppleWebKit/537.36 (KHTML, like Gecko) draw.io/24.2.5 Chrome/120.0.6099.109 Electron/28.1.0 Safari/537.36" version="24.2.5" etag="4SK4D32N5u9DPuqKF2lz" type="device">
  <diagram id="7uy4fU4e8tnULccgJqPx" name="Pagina-1">
    <mxGraphModel dx="875" dy="518" grid="1" gridSize="10" guides="1" tooltips="1" connect="1" arrows="1" fold="1" page="1" pageScale="1" pageWidth="827" pageHeight="1169" math="0" shadow="0">
      <root>
        <mxCell id="0" />
        <mxCell id="1" parent="0" />
        <mxCell id="kGhwG1YDfxJx5EjdQXlp-12" value="&lt;span style=&quot;font-size: 8px;&quot;&gt;(1,N)&lt;/span&gt;" style="text;html=1;align=center;verticalAlign=middle;whiteSpace=wrap;rounded=1;strokeColor=none;glass=0;" vertex="1" parent="1">
          <mxGeometry x="321.99000000000007" y="151.00000000000003" width="22.5" height="6.75" as="geometry" />
        </mxCell>
        <mxCell id="kGhwG1YDfxJx5EjdQXlp-13" value="&lt;font style=&quot;font-size: 8px;&quot;&gt;(0,N)&lt;/font&gt;" style="text;html=1;align=center;verticalAlign=middle;whiteSpace=wrap;rounded=1;strokeColor=none;glass=0;" vertex="1" parent="1">
          <mxGeometry x="419.69" y="150.99999999999994" width="22.5" height="6.75" as="geometry" />
        </mxCell>
        <mxCell id="kGhwG1YDfxJx5EjdQXlp-14" value="" style="endArrow=none;html=1;rounded=0;entryX=1;entryY=0.5;entryDx=0;entryDy=0;exitX=0;exitY=0.5;exitDx=0;exitDy=0;" edge="1" parent="1">
          <mxGeometry width="50" height="50" relative="1" as="geometry">
            <mxPoint x="522.19" y="167.75" as="sourcePoint" />
            <mxPoint x="254" y="167.75" as="targetPoint" />
          </mxGeometry>
        </mxCell>
        <mxCell id="kGhwG1YDfxJx5EjdQXlp-15" value="Scelta" style="shape=rhombus;perimeter=rhombusPerimeter;whiteSpace=wrap;html=1;align=center;" vertex="1" parent="1">
          <mxGeometry x="338.44000000000005" y="142.13" width="92.5" height="51" as="geometry" />
        </mxCell>
        <mxCell id="kGhwG1YDfxJx5EjdQXlp-23" style="edgeStyle=orthogonalEdgeStyle;rounded=0;orthogonalLoop=1;jettySize=auto;html=1;exitX=0;exitY=0.5;exitDx=0;exitDy=0;endArrow=oval;endFill=0;" edge="1" parent="1">
          <mxGeometry relative="1" as="geometry">
            <mxPoint x="180" y="179.13" as="targetPoint" />
            <mxPoint x="200" y="176.24500000000012" as="sourcePoint" />
            <Array as="points">
              <mxPoint x="200" y="179.13" />
            </Array>
          </mxGeometry>
        </mxCell>
        <mxCell id="kGhwG1YDfxJx5EjdQXlp-24" value="Visitatore" style="whiteSpace=wrap;html=1;align=center;" vertex="1" parent="1">
          <mxGeometry x="200" y="149.13" width="60" height="40.01" as="geometry" />
        </mxCell>
        <mxCell id="kGhwG1YDfxJx5EjdQXlp-28" value="&lt;font style=&quot;font-size: 8px;&quot;&gt;Nome&lt;/font&gt;" style="text;html=1;align=center;verticalAlign=middle;whiteSpace=wrap;rounded=0;" vertex="1" parent="1">
          <mxGeometry x="200" y="116.63999999999999" width="25" height="10" as="geometry" />
        </mxCell>
        <mxCell id="kGhwG1YDfxJx5EjdQXlp-29" value="&lt;font style=&quot;font-size: 8px;&quot;&gt;Cognome&lt;/font&gt;" style="text;html=1;align=center;verticalAlign=middle;whiteSpace=wrap;rounded=0;" vertex="1" parent="1">
          <mxGeometry x="220" y="106.63999999999999" width="60" height="30" as="geometry" />
        </mxCell>
        <mxCell id="kGhwG1YDfxJx5EjdQXlp-30" value="&lt;font style=&quot;font-size: 8px;&quot;&gt;Periodo storico&lt;/font&gt;" style="text;html=1;align=center;verticalAlign=middle;whiteSpace=wrap;rounded=0;" vertex="1" parent="1">
          <mxGeometry x="540.11" y="109.57" width="71" height="29" as="geometry" />
        </mxCell>
        <mxCell id="kGhwG1YDfxJx5EjdQXlp-31" value="&lt;font style=&quot;font-size: 8px;&quot;&gt;Nome&lt;/font&gt;" style="text;html=1;align=center;verticalAlign=middle;whiteSpace=wrap;rounded=0;" vertex="1" parent="1">
          <mxGeometry x="490.55" y="109.57" width="63" height="30" as="geometry" />
        </mxCell>
        <mxCell id="kGhwG1YDfxJx5EjdQXlp-40" style="edgeStyle=orthogonalEdgeStyle;rounded=0;orthogonalLoop=1;jettySize=auto;html=1;exitX=0.5;exitY=1;exitDx=0;exitDy=0;" edge="1" parent="1">
          <mxGeometry relative="1" as="geometry">
            <mxPoint x="631.99" y="131.44" as="sourcePoint" />
            <mxPoint x="631.99" y="131.44" as="targetPoint" />
          </mxGeometry>
        </mxCell>
        <mxCell id="kGhwG1YDfxJx5EjdQXlp-41" value="&lt;font style=&quot;font-size: 8px;&quot;&gt;CF&lt;/font&gt;" style="text;html=1;align=center;verticalAlign=middle;whiteSpace=wrap;rounded=0;" vertex="1" parent="1">
          <mxGeometry x="160" y="153.51" width="20" height="10" as="geometry" />
        </mxCell>
        <mxCell id="kGhwG1YDfxJx5EjdQXlp-42" style="edgeStyle=orthogonalEdgeStyle;rounded=0;orthogonalLoop=1;jettySize=auto;html=1;exitX=0;exitY=0;exitDx=0;exitDy=0;endArrow=oval;endFill=0;" edge="1" parent="1">
          <mxGeometry relative="1" as="geometry">
            <mxPoint x="210" y="131.13" as="targetPoint" />
            <mxPoint x="210" y="149.13" as="sourcePoint" />
            <Array as="points" />
          </mxGeometry>
        </mxCell>
        <mxCell id="kGhwG1YDfxJx5EjdQXlp-43" style="edgeStyle=orthogonalEdgeStyle;rounded=0;orthogonalLoop=1;jettySize=auto;html=1;exitX=0;exitY=0;exitDx=0;exitDy=0;endArrow=oval;endFill=0;" edge="1" parent="1">
          <mxGeometry relative="1" as="geometry">
            <mxPoint x="250" y="131.13" as="targetPoint" />
            <mxPoint x="250" y="149.13" as="sourcePoint" />
            <Array as="points" />
          </mxGeometry>
        </mxCell>
        <mxCell id="kGhwG1YDfxJx5EjdQXlp-44" value="&lt;font style=&quot;font-size: 8px;&quot;&gt;Email&lt;/font&gt;" style="text;html=1;align=center;verticalAlign=middle;whiteSpace=wrap;rounded=0;" vertex="1" parent="1">
          <mxGeometry x="150" y="175.13" width="30" height="7" as="geometry" />
        </mxCell>
        <mxCell id="kGhwG1YDfxJx5EjdQXlp-45" style="edgeStyle=orthogonalEdgeStyle;rounded=0;orthogonalLoop=1;jettySize=auto;html=1;exitX=0;exitY=0.25;exitDx=0;exitDy=0;endArrow=oval;endFill=1;" edge="1" parent="1" source="kGhwG1YDfxJx5EjdQXlp-24">
          <mxGeometry relative="1" as="geometry">
            <mxPoint x="180" y="159.13" as="targetPoint" />
            <mxPoint x="135" y="137.89" as="sourcePoint" />
            <Array as="points" />
          </mxGeometry>
        </mxCell>
        <mxCell id="kGhwG1YDfxJx5EjdQXlp-54" style="edgeStyle=orthogonalEdgeStyle;rounded=0;orthogonalLoop=1;jettySize=auto;html=1;exitX=1;exitY=0.5;exitDx=0;exitDy=0;endArrow=oval;endFill=0;" edge="1" parent="1">
          <mxGeometry relative="1" as="geometry">
            <mxPoint x="279.88" y="182.63" as="targetPoint" />
            <mxPoint x="260" y="182.63" as="sourcePoint" />
            <Array as="points">
              <mxPoint x="274.88" y="182.63" />
            </Array>
          </mxGeometry>
        </mxCell>
        <mxCell id="kGhwG1YDfxJx5EjdQXlp-55" value="&lt;font style=&quot;font-size: 8px;&quot;&gt;Visite&lt;/font&gt;&lt;div style=&quot;line-height: 30%;&quot;&gt;&lt;font style=&quot;font-size: 8px;&quot;&gt;E&lt;/font&gt;&lt;span style=&quot;font-size: 8px; background-color: initial;&quot;&gt;ffettuate&lt;/span&gt;&lt;/div&gt;" style="text;html=1;align=center;verticalAlign=middle;whiteSpace=wrap;rounded=1;strokeColor=none;" vertex="1" parent="1">
          <mxGeometry x="280" y="172.13" width="37" height="21" as="geometry" />
        </mxCell>
        <mxCell id="kGhwG1YDfxJx5EjdQXlp-56" style="edgeStyle=orthogonalEdgeStyle;rounded=0;orthogonalLoop=1;jettySize=auto;html=1;exitX=0.25;exitY=0;exitDx=0;exitDy=0;entryX=0.5;entryY=1;entryDx=0;entryDy=0;endArrow=oval;endFill=0;" edge="1" parent="1">
          <mxGeometry relative="1" as="geometry">
            <mxPoint x="522.74" y="134.15000000000003" as="targetPoint" />
            <mxPoint x="520.12" y="151.65000000000003" as="sourcePoint" />
          </mxGeometry>
        </mxCell>
        <mxCell id="kGhwG1YDfxJx5EjdQXlp-57" style="edgeStyle=orthogonalEdgeStyle;rounded=0;orthogonalLoop=1;jettySize=auto;html=1;exitX=1;exitY=0;exitDx=0;exitDy=0;entryX=0.25;entryY=1;entryDx=0;entryDy=0;endArrow=oval;endFill=0;" edge="1" parent="1" source="kGhwG1YDfxJx5EjdQXlp-58">
          <mxGeometry relative="1" as="geometry">
            <mxPoint x="574.74" y="134.15000000000003" as="targetPoint" />
            <mxPoint x="587.62" y="151.65000000000003" as="sourcePoint" />
          </mxGeometry>
        </mxCell>
        <mxCell id="kGhwG1YDfxJx5EjdQXlp-58" value="CiviltÃ " style="whiteSpace=wrap;html=1;align=center;" vertex="1" parent="1">
          <mxGeometry x="515" y="151.69" width="70" height="30" as="geometry" />
        </mxCell>
        <mxCell id="kGhwG1YDfxJx5EjdQXlp-59" value="" style="curved=1;endArrow=oval;html=1;rounded=0;entryX=0.642;entryY=0.924;entryDx=0;entryDy=0;entryPerimeter=0;endFill=1;" edge="1" parent="1">
          <mxGeometry width="50" height="50" relative="1" as="geometry">
            <mxPoint x="507.99" y="146.89000000000004" as="sourcePoint" />
            <mxPoint x="599.99" y="135.89000000000004" as="targetPoint" />
            <Array as="points">
              <mxPoint x="549.4399999999999" y="147.33999999999997" />
              <mxPoint x="599.44" y="147.33999999999997" />
            </Array>
          </mxGeometry>
        </mxCell>
        <mxCell id="kGhwG1YDfxJx5EjdQXlp-60" value="&lt;font style=&quot;font-size: 8px;&quot;&gt;(1,N)&lt;/font&gt;" style="text;html=1;align=center;verticalAlign=middle;whiteSpace=wrap;rounded=1;strokeColor=none;glass=0;" vertex="1" parent="1">
          <mxGeometry x="480" y="181.69" width="50" height="15" as="geometry" />
        </mxCell>
        <mxCell id="kGhwG1YDfxJx5EjdQXlp-61" value="&lt;p style=&quot;line-height: 70%;&quot;&gt;&lt;font style=&quot;font-size: 9px;&quot;&gt;Area Geografica&lt;/font&gt;&lt;/p&gt;" style="text;html=1;align=center;verticalAlign=middle;whiteSpace=wrap;rounded=0;" vertex="1" parent="1">
          <mxGeometry x="470" y="195.69" width="60" height="30" as="geometry" />
        </mxCell>
        <mxCell id="kGhwG1YDfxJx5EjdQXlp-62" style="edgeStyle=orthogonalEdgeStyle;rounded=0;orthogonalLoop=1;jettySize=auto;html=1;exitX=0.25;exitY=1;exitDx=0;exitDy=0;endArrow=oval;endFill=0;" edge="1" parent="1">
          <mxGeometry relative="1" as="geometry">
            <mxPoint x="516.95" y="181.69" as="sourcePoint" />
            <mxPoint x="518.04" y="207.19" as="targetPoint" />
          </mxGeometry>
        </mxCell>
      </root>
    </mxGraphModel>
  </diagram>
</mxfile>
